<mxfile host="app.diagrams.net" modified="2022-04-15T07:13:32.981Z" agent="5.0 (Windows NT 10.0; Win64; x64) AppleWebKit/537.36 (KHTML, like Gecko) Chrome/100.0.4896.88 Safari/537.36" etag="0AcOPEqHFVxfvWBWDMAj" version="17.1.3" type="github">
  <diagram id="fNHotmIe-S1Ru7OS20_X" name="Page-1">
    <mxGraphModel dx="2781" dy="652" grid="1" gridSize="14" guides="1" tooltips="1" connect="1" arrows="1" fold="1" page="1" pageScale="1" pageWidth="1169" pageHeight="827" background="#ffffff" math="0" shadow="1">
      <root>
        <mxCell id="0" />
        <mxCell id="1" parent="0" />
        <mxCell id="OrT8Z4azKn3CFdHJwb80-22" style="edgeStyle=orthogonalEdgeStyle;rounded=0;orthogonalLoop=1;jettySize=auto;html=1;entryX=0.5;entryY=0;entryDx=0;entryDy=0;" edge="1" parent="1" source="OrT8Z4azKn3CFdHJwb80-1" target="OrT8Z4azKn3CFdHJwb80-8">
          <mxGeometry relative="1" as="geometry">
            <Array as="points">
              <mxPoint x="95" y="100" />
            </Array>
          </mxGeometry>
        </mxCell>
        <mxCell id="OrT8Z4azKn3CFdHJwb80-23" style="edgeStyle=orthogonalEdgeStyle;rounded=0;orthogonalLoop=1;jettySize=auto;html=1;entryX=0.5;entryY=0;entryDx=0;entryDy=0;" edge="1" parent="1" source="OrT8Z4azKn3CFdHJwb80-1" target="OrT8Z4azKn3CFdHJwb80-9">
          <mxGeometry relative="1" as="geometry" />
        </mxCell>
        <mxCell id="OrT8Z4azKn3CFdHJwb80-24" style="edgeStyle=orthogonalEdgeStyle;rounded=0;orthogonalLoop=1;jettySize=auto;html=1;exitX=0.5;exitY=1;exitDx=0;exitDy=0;entryX=0.5;entryY=0;entryDx=0;entryDy=0;" edge="1" parent="1" source="OrT8Z4azKn3CFdHJwb80-1" target="OrT8Z4azKn3CFdHJwb80-10">
          <mxGeometry relative="1" as="geometry">
            <Array as="points">
              <mxPoint x="354" y="100" />
              <mxPoint x="490" y="100" />
            </Array>
          </mxGeometry>
        </mxCell>
        <mxCell id="OrT8Z4azKn3CFdHJwb80-25" style="edgeStyle=orthogonalEdgeStyle;rounded=0;orthogonalLoop=1;jettySize=auto;html=1;exitX=0.5;exitY=1;exitDx=0;exitDy=0;entryX=0.5;entryY=0;entryDx=0;entryDy=0;" edge="1" parent="1" source="OrT8Z4azKn3CFdHJwb80-1" target="OrT8Z4azKn3CFdHJwb80-11">
          <mxGeometry relative="1" as="geometry">
            <Array as="points">
              <mxPoint x="354" y="100" />
              <mxPoint x="720" y="100" />
            </Array>
          </mxGeometry>
        </mxCell>
        <mxCell id="OrT8Z4azKn3CFdHJwb80-1" value="" style="ellipse;whiteSpace=wrap;html=1;container=1;rounded=0;" vertex="1" parent="1">
          <mxGeometry x="294" width="120" height="80" as="geometry" />
        </mxCell>
        <mxCell id="OrT8Z4azKn3CFdHJwb80-2" value="Login" style="text;html=1;strokeColor=none;fillColor=none;align=center;verticalAlign=middle;whiteSpace=wrap;rounded=0;" vertex="1" parent="OrT8Z4azKn3CFdHJwb80-1">
          <mxGeometry x="30" y="25" width="60" height="30" as="geometry" />
        </mxCell>
        <mxCell id="OrT8Z4azKn3CFdHJwb80-26" style="edgeStyle=orthogonalEdgeStyle;rounded=0;orthogonalLoop=1;jettySize=auto;html=1;entryX=0.448;entryY=0.006;entryDx=0;entryDy=0;entryPerimeter=0;" edge="1" parent="1" source="OrT8Z4azKn3CFdHJwb80-8" target="OrT8Z4azKn3CFdHJwb80-14">
          <mxGeometry relative="1" as="geometry" />
        </mxCell>
        <mxCell id="OrT8Z4azKn3CFdHJwb80-8" value="System Admin" style="rounded=0;whiteSpace=wrap;html=1;" vertex="1" parent="1">
          <mxGeometry x="35" y="160" width="120" height="60" as="geometry" />
        </mxCell>
        <mxCell id="OrT8Z4azKn3CFdHJwb80-38" style="edgeStyle=orthogonalEdgeStyle;rounded=0;orthogonalLoop=1;jettySize=auto;html=1;entryX=0.556;entryY=0;entryDx=0;entryDy=0;entryPerimeter=0;" edge="1" parent="1" source="OrT8Z4azKn3CFdHJwb80-9" target="OrT8Z4azKn3CFdHJwb80-35">
          <mxGeometry relative="1" as="geometry" />
        </mxCell>
        <mxCell id="OrT8Z4azKn3CFdHJwb80-9" value="organization" style="rounded=0;whiteSpace=wrap;html=1;" vertex="1" parent="1">
          <mxGeometry x="240" y="160" width="120" height="60" as="geometry" />
        </mxCell>
        <mxCell id="OrT8Z4azKn3CFdHJwb80-53" style="edgeStyle=orthogonalEdgeStyle;rounded=0;orthogonalLoop=1;jettySize=auto;html=1;entryX=0.461;entryY=-0.01;entryDx=0;entryDy=0;entryPerimeter=0;" edge="1" parent="1" source="OrT8Z4azKn3CFdHJwb80-10" target="OrT8Z4azKn3CFdHJwb80-36">
          <mxGeometry relative="1" as="geometry" />
        </mxCell>
        <mxCell id="OrT8Z4azKn3CFdHJwb80-10" value="Team Leader" style="rounded=0;whiteSpace=wrap;html=1;" vertex="1" parent="1">
          <mxGeometry x="430" y="160" width="120" height="60" as="geometry" />
        </mxCell>
        <mxCell id="OrT8Z4azKn3CFdHJwb80-40" style="edgeStyle=orthogonalEdgeStyle;rounded=0;orthogonalLoop=1;jettySize=auto;html=1;" edge="1" parent="1" source="OrT8Z4azKn3CFdHJwb80-11" target="OrT8Z4azKn3CFdHJwb80-37">
          <mxGeometry relative="1" as="geometry" />
        </mxCell>
        <mxCell id="OrT8Z4azKn3CFdHJwb80-11" value="Team Member" style="rounded=0;whiteSpace=wrap;html=1;" vertex="1" parent="1">
          <mxGeometry x="660" y="150" width="120" height="60" as="geometry" />
        </mxCell>
        <mxCell id="OrT8Z4azKn3CFdHJwb80-14" value="" style="rounded=0;whiteSpace=wrap;html=1;absoluteArcSize=1;arcSize=14;strokeWidth=2;gradientColor=none;" vertex="1" parent="1">
          <mxGeometry y="310" width="180" height="290" as="geometry" />
        </mxCell>
        <mxCell id="OrT8Z4azKn3CFdHJwb80-27" value="" style="rounded=0;whiteSpace=wrap;html=1;gradientColor=none;" vertex="1" parent="1">
          <mxGeometry x="20" y="340" width="120" height="60" as="geometry" />
        </mxCell>
        <mxCell id="OrT8Z4azKn3CFdHJwb80-28" value="Create Organization" style="text;html=1;strokeColor=none;fillColor=none;align=center;verticalAlign=middle;whiteSpace=wrap;rounded=0;" vertex="1" parent="1">
          <mxGeometry x="50" y="355" width="60" height="30" as="geometry" />
        </mxCell>
        <mxCell id="OrT8Z4azKn3CFdHJwb80-29" value="Enable/Disable&lt;br&gt;Organization" style="rounded=0;whiteSpace=wrap;html=1;gradientColor=none;" vertex="1" parent="1">
          <mxGeometry x="20" y="420" width="120" height="60" as="geometry" />
        </mxCell>
        <mxCell id="OrT8Z4azKn3CFdHJwb80-30" value="Edit Organization" style="rounded=0;whiteSpace=wrap;html=1;gradientColor=none;" vertex="1" parent="1">
          <mxGeometry x="20" y="510" width="120" height="60" as="geometry" />
        </mxCell>
        <mxCell id="OrT8Z4azKn3CFdHJwb80-35" value="" style="rounded=0;whiteSpace=wrap;html=1;absoluteArcSize=1;arcSize=14;strokeWidth=2;gradientColor=none;" vertex="1" parent="1">
          <mxGeometry x="200" y="310" width="180" height="290" as="geometry" />
        </mxCell>
        <mxCell id="OrT8Z4azKn3CFdHJwb80-36" value="" style="rounded=0;whiteSpace=wrap;html=1;absoluteArcSize=1;arcSize=14;strokeWidth=2;gradientColor=none;" vertex="1" parent="1">
          <mxGeometry x="410" y="310" width="180" height="290" as="geometry" />
        </mxCell>
        <mxCell id="OrT8Z4azKn3CFdHJwb80-37" value="" style="rounded=0;whiteSpace=wrap;html=1;absoluteArcSize=1;arcSize=14;strokeWidth=2;gradientColor=none;" vertex="1" parent="1">
          <mxGeometry x="630" y="310" width="180" height="290" as="geometry" />
        </mxCell>
        <mxCell id="OrT8Z4azKn3CFdHJwb80-41" value="Create Team" style="rounded=0;whiteSpace=wrap;html=1;gradientColor=none;" vertex="1" parent="1">
          <mxGeometry x="230" y="325" width="120" height="45" as="geometry" />
        </mxCell>
        <mxCell id="OrT8Z4azKn3CFdHJwb80-42" value="Enable/Disable&lt;br&gt;Organization" style="rounded=0;whiteSpace=wrap;html=1;gradientColor=none;" vertex="1" parent="1">
          <mxGeometry x="230" y="385" width="120" height="40" as="geometry" />
        </mxCell>
        <mxCell id="OrT8Z4azKn3CFdHJwb80-43" value="Update Team" style="rounded=0;whiteSpace=wrap;html=1;gradientColor=none;" vertex="1" parent="1">
          <mxGeometry x="230" y="435" width="120" height="40" as="geometry" />
        </mxCell>
        <mxCell id="OrT8Z4azKn3CFdHJwb80-44" value="Create Team Leader" style="rounded=0;whiteSpace=wrap;html=1;gradientColor=none;" vertex="1" parent="1">
          <mxGeometry x="230" y="490" width="120" height="40" as="geometry" />
        </mxCell>
        <mxCell id="OrT8Z4azKn3CFdHJwb80-45" value="Assign Team Leader&lt;br&gt;to Team" style="rounded=0;whiteSpace=wrap;html=1;gradientColor=none;" vertex="1" parent="1">
          <mxGeometry x="230" y="550" width="120" height="40" as="geometry" />
        </mxCell>
        <mxCell id="OrT8Z4azKn3CFdHJwb80-46" value="Assign Team Member" style="rounded=0;whiteSpace=wrap;html=1;gradientColor=none;" vertex="1" parent="1">
          <mxGeometry x="440" y="340" width="120" height="45" as="geometry" />
        </mxCell>
        <mxCell id="OrT8Z4azKn3CFdHJwb80-47" value="Enable/Disable&lt;br&gt;Team Member" style="rounded=0;whiteSpace=wrap;html=1;gradientColor=none;" vertex="1" parent="1">
          <mxGeometry x="440" y="410" width="120" height="45" as="geometry" />
        </mxCell>
        <mxCell id="OrT8Z4azKn3CFdHJwb80-48" value="Assign Task" style="rounded=0;whiteSpace=wrap;html=1;gradientColor=none;" vertex="1" parent="1">
          <mxGeometry x="440" y="475" width="120" height="45" as="geometry" />
        </mxCell>
        <mxCell id="OrT8Z4azKn3CFdHJwb80-49" value="Manage task" style="rounded=0;whiteSpace=wrap;html=1;gradientColor=none;" vertex="1" parent="1">
          <mxGeometry x="440" y="540" width="120" height="45" as="geometry" />
        </mxCell>
        <mxCell id="OrT8Z4azKn3CFdHJwb80-50" value="Make Current Day Task Report" style="rounded=0;whiteSpace=wrap;html=1;gradientColor=none;" vertex="1" parent="1">
          <mxGeometry x="650" y="340" width="120" height="45" as="geometry" />
        </mxCell>
        <mxCell id="OrT8Z4azKn3CFdHJwb80-51" value="Make Current Day&lt;br&gt;uncompleted Things Report" style="rounded=0;whiteSpace=wrap;html=1;gradientColor=none;" vertex="1" parent="1">
          <mxGeometry x="650" y="410" width="120" height="45" as="geometry" />
        </mxCell>
        <mxCell id="OrT8Z4azKn3CFdHJwb80-52" value="Make Current Day&lt;br&gt;uncompleted Things Reason" style="rounded=0;whiteSpace=wrap;html=1;gradientColor=none;" vertex="1" parent="1">
          <mxGeometry x="650" y="487.5" width="120" height="45" as="geometry" />
        </mxCell>
      </root>
    </mxGraphModel>
  </diagram>
</mxfile>
